<svg xmlns="http://www.w3.org/2000/svg"><defs><g id="add-node"> <path d="M0 0h24v24H0z" fill="none"/> <path d="M4 6H2v14c0 1.1.9 2 2 2h14v-2H4V6zm16-4H8c-1.1 0-2 .9-2 2v12c0 1.1.9 2 2 2h12c1.1 0 2-.9 2-2V4c0-1.1-.9-2-2-2zm-1 9h-4v4h-2v-4H9V9h4V5h2v4h4v2z"/> </g><g id="add"> <path d="M19 13h-6v6h-2v-6H5v-2h6V5h2v6h6v2z"/> <path d="M0 0h24v24H0z" fill="none"/> </g><path d="M19,3A2,2 0 0,1 21,5V19A2,2 0 0,1 19,21H17L15,21V9L15,5A2,2 0 0,1 17,3H19M5,21A2,2 0 0,1 3,19V17A2,2 0 0,1 5,15H9V11A2,2 0 0,1 11,9H14.5V21H5Z" id="analytics"/><g id="arrow-down"> <path d="M16.59 8.59L12 13.17 7.41 8.59 6 10l6 6 6-6z"/> <path d="M0 0h24v24H0z" fill="none"/> </g><g id="arrow-left"> <path d="M15.41 7.41L14 6l-6 6 6 6 1.41-1.41L10.83 12z"/> <path d="M0 0h24v24H0z" fill="none"/> </g><g id="arrow-right"> <path d="M10 6L8.59 7.41 13.17 12l-4.58 4.59L10 18l6-6z"/> <path d="M0 0h24v24H0z" fill="none"/> </g><g id="arrow-up"> <path d="M7.41 15.41L12 10.83l4.59 4.58L18 14l-6-6-6 6z"/> <path d="M0 0h24v24H0z" fill="none"/> </g><g id="arrow_forward"> <path d="M0 0h24v24H0z" fill="none"/> <path d="M12 4l-1.41 1.41L16.17 11H4v2h12.17l-5.58 5.59L12 20l8-8z"/> </g><path d="M12.6,2.86C15.27,4.1 18,5.39 20.66,6.63C20.81,6.7 21,6.75 21,6.95C21,7.15 20.81,7.19 20.66,7.26C18,8.5 15.3,9.77 12.62,11C12.21,11.21 11.79,11.21 11.38,11C8.69,9.76 6,8.5 3.32,7.25C3.18,7.19 3,7.14 3,6.94C3,6.76 3.18,6.71 3.31,6.65C6,5.39 8.74,4.1 11.44,2.85C11.73,2.72 12.3,2.73 12.6,2.86M12,21.15C11.8,21.15 11.66,21.07 11.38,20.97C8.69,19.73 6,18.47 3.33,17.22C3.19,17.15 3,17.11 3,16.9C3,16.7 3.19,16.66 3.34,16.59C3.78,16.38 4.23,16.17 4.67,15.96C5.12,15.76 5.56,15.76 6,15.97C7.79,16.8 9.57,17.63 11.35,18.46C11.79,18.67 12.23,18.66 12.67,18.46C14.45,17.62 16.23,16.79 18,15.96C18.44,15.76 18.87,15.75 19.29,15.95C19.77,16.16 20.24,16.39 20.71,16.61C20.78,16.64 20.85,16.68 20.91,16.73C21.04,16.83 21.04,17 20.91,17.08C20.83,17.14 20.74,17.19 20.65,17.23C18,18.5 15.33,19.72 12.66,20.95C12.46,21.05 12.19,21.15 12,21.15M12,16.17C11.9,16.17 11.55,16.07 11.36,16C8.68,14.74 6,13.5 3.34,12.24C3.2,12.18 3,12.13 3,11.93C3,11.72 3.2,11.68 3.35,11.61C3.8,11.39 4.25,11.18 4.7,10.97C5.13,10.78 5.56,10.78 6,11C7.78,11.82 9.58,12.66 11.38,13.5C11.79,13.69 12.21,13.69 12.63,13.5C14.43,12.65 16.23,11.81 18.04,10.97C18.45,10.78 18.87,10.78 19.29,10.97C19.76,11.19 20.24,11.41 20.71,11.63C20.77,11.66 20.84,11.69 20.9,11.74C21.04,11.85 21.04,12 20.89,12.12C20.84,12.16 20.77,12.19 20.71,12.22C18,13.5 15.31,14.75 12.61,16C12.42,16.09 12.08,16.17 12,16.17Z" id="buffer"/><g id="check"> <path d="M0 0h24v24H0z" fill="none"/> <path d="M9 16.17L4.83 12l-1.42 1.41L9 19 21 7l-1.41-1.41z"/> </g><path d="M16,15H12V18L7,13L12,8V11H16M12,3A1,1 0 0,1 13,4A1,1 0 0,1 12,5A1,1 0 0,1 11,4A1,1 0 0,1 12,3M19,3H14.82C14.4,1.84 13.3,1 12,1C10.7,1 9.6,1.84 9.18,3H5A2,2 0 0,0 3,5V19A2,2 0 0,0 5,21H19A2,2 0 0,0 21,19V5A2,2 0 0,0 19,3Z" id="clipboard"/><g id="close"> <path d="M19 6.41L17.59 5 12 10.59 6.41 5 5 6.41 10.59 12 5 17.59 6.41 19 12 13.41 17.59 19 19 17.59 13.41 12z"/> <path d="M0 0h24v24H0z" fill="none"/> </g><path d="M21,17V3H7V17H21M21,1A2,2 0 0,1 23,3V17A2,2 0 0,1 21,19H7A2,2 0 0,1 5,17V3A2,2 0 0,1 7,1H21M3,5V21H19V23H3A2,2 0 0,1 1,21V5H3M13,5H15A2,2 0 0,1 17,7V13A2,2 0 0,1 15,15H13A2,2 0 0,1 11,13V7A2,2 0 0,1 13,5M13,7V13H15V7H13Z" id="collapse"/><path d="M4,2C2.89,2 2,2.89 2,4V14H4V4H14V2H4M8,6C6.89,6 6,6.89 6,8V18H8V8H18V6H8M12,10C10.89,10 10,10.89 10,12V20C10,21.11 10.89,22 12,22H20C21.11,22 22,21.11 22,20V12C22,10.89 21.11,10 20,10H12Z" id="copy-all"/><g id="copy"> <path d="M0 0h24v24H0z" fill="none"/> <path d="M16 1H4c-1.1 0-2 .9-2 2v14h2V3h12V1zm3 4H8c-1.1 0-2 .9-2 2v14c0 1.1.9 2 2 2h11c1.1 0 2-.9 2-2V7c0-1.1-.9-2-2-2zm0 16H8V7h11v14z"/> </g><g id="delete"> <path d="M6 19c0 1.1.9 2 2 2h8c1.1 0 2-.9 2-2V7H6v12zM19 4h-3.5l-1-1h-5l-1 1H5v2h14V4z"/> <path d="M0 0h24v24H0z" fill="none"/> </g><g id="dots-white-small"> <path d="M0 0h24v24H0z" fill="none"/> <path d="M6 10c-1.1 0-2 .9-2 2s.9 2 2 2 2-.9 2-2-.9-2-2-2zm12 0c-1.1 0-2 .9-2 2s.9 2 2 2 2-.9 2-2-.9-2-2-2zm-6 0c-1.1 0-2 .9-2 2s.9 2 2 2 2-.9 2-2-.9-2-2-2z"/> </g><g id="dots"> <path d="M0 0h24v24H0z" fill="none"/> <path d="M12 8c1.1 0 2-.9 2-2s-.9-2-2-2-2 .9-2 2 .9 2 2 2zm0 2c-1.1 0-2 .9-2 2s.9 2 2 2 2-.9 2-2-.9-2-2-2zm0 6c-1.1 0-2 .9-2 2s.9 2 2 2 2-.9 2-2-.9-2-2-2z"/> </g><path d="M9,3H11V5H9V3M13,3H15V5H13V3M9,7H11V9H9V7M13,7H15V9H13V7M9,11H11V13H9V11M13,11H15V13H13V11M9,15H11V17H9V15M13,15H15V17H13V15M9,19H11V21H9V19M13,19H15V21H13V19Z" id="drag-vertical"/><g id="edit"> <path d="M3 17.25V21h3.75L17.81 9.94l-3.75-3.75L3 17.25zM20.71 7.04c.39-.39.39-1.02 0-1.41l-2.34-2.34c-.39-.39-1.02-.39-1.41 0l-1.83 1.83 3.75 3.75 1.83-1.83z"/> <path d="M0 0h24v24H0z" fill="none"/> </g><g id="embed"> <path d="M0 0h24v24H0V0z" fill="none"/> <path d="M9.4 16.6L4.8 12l4.6-4.6L8 6l-6 6 6 6 1.4-1.4zm5.2 0l4.6-4.6-4.6-4.6L16 6l6 6-6 6-1.4-1.4z"/> </g><g id="error"> <path d="M0 0h24v24H0z" fill="none"/> <path d="M12 2C6.48 2 2 6.48 2 12s4.48 10 10 10 10-4.48 10-10S17.52 2 12 2zm1 15h-2v-2h2v2zm0-4h-2V7h2v6z"/> </g><path d="M19,4V7H17A1,1 0 0,0 16,8V10H19V13H16V20H13V13H11V10H13V7.5C13,5.56 14.57,4 16.5,4M20,2H4A2,2 0 0,0 2,4V20A2,2 0 0,0 4,22H20A2,2 0 0,0 22,20V4C22,2.89 21.1,2 20,2Z" id="facebook"/><g id="fav-25"><defs><style>.cls-1{fill:#1d1d1b;}</style></defs><title>fav</title><path class="cls-1" d="M3.5,2.17l0.16,0L5.81,2.69a0.69,0.69,0,0,1,.51.83L5.58,5.18s-0.75.74-.34,1,1.22-.34,1.22-0.34l4-3.15a0.68,0.68,0,0,1,.36-0.1l0.16,0a0.69,0.69,0,0,1,.43.31l1.16,1.88a0.68,0.68,0,0,1,.08.52,0.43,0.43,0,0,1-.3.29l-0.56.22S9.82,6.42,10,6.9s1.66-.28,1.66-0.28L15.24,7a0.69,0.69,0,0,1,.58.78L15.49,9.91a0.69,0.69,0,0,1-.68.59h-0.1l-8-1.6L4.36,10.46,4,13.3a0.69,0.69,0,0,1-.67.53l-0.16,0L1,13.31a0.69,0.69,0,0,1-.51-0.83L2.83,2.7A0.69,0.69,0,0,1,3.5,2.17"/></g><g id="favorite"> <path d="M0 0h24v24H0z" fill="none"/> <path d="M12 21.35l-1.45-1.32C5.4 15.36 2 12.28 2 8.5 2 5.42 4.42 3 7.5 3c1.74 0 3.41.81 4.5 2.09C13.09 3.81 14.76 3 16.5 3 19.58 3 22 5.42 22 8.5c0 3.78-3.4 6.86-8.55 11.54L12 21.35z"/> </g><g id="focus"> <path d="M0 0h24v24H0z" fill="none"/> <path d="M12 8c-2.21 0-4 1.79-4 4s1.79 4 4 4 4-1.79 4-4-1.79-4-4-4zm-7 7H3v4c0 1.1.9 2 2 2h4v-2H5v-4zM5 5h4V3H5c-1.1 0-2 .9-2 2v4h2V5zm14-2h-4v2h4v4h2V5c0-1.1-.9-2-2-2zm0 16h-4v2h4c1.1 0 2-.9 2-2v-4h-2v4z"/> </g><g id="friends"> <path d="M0 0h24v24H0z" fill="none"/> <path d="M16 11c1.66 0 2.99-1.34 2.99-3S17.66 5 16 5c-1.66 0-3 1.34-3 3s1.34 3 3 3zm-8 0c1.66 0 2.99-1.34 2.99-3S9.66 5 8 5C6.34 5 5 6.34 5 8s1.34 3 3 3zm0 2c-2.33 0-7 1.17-7 3.5V19h14v-2.5c0-2.33-4.67-3.5-7-3.5zm8 0c-.29 0-.62.02-.97.05 1.16.84 1.97 1.97 1.97 3.45V19h6v-2.5c0-2.33-4.67-3.5-7-3.5z"/> </g><g id="fullscreen-exit"> <path d="M0 0h24v24H0z" fill="none"/> <path d="M5 16h3v3h2v-5H5v2zm3-8H5v2h5V5H8v3zm6 11h2v-3h3v-2h-5v5zm2-11V5h-2v5h5V8h-3z"/> </g><g id="fullscreen"> <path d="M0 0h24v24H0z" fill="none"/> <path d="M7 14H5v5h5v-2H7v-3zm-2-4h2V7h3V5H5v5zm12 7h-3v2h5v-5h-2v3zM14 5v2h3v3h2V5h-5z"/> </g><path transform="translate(2,0)" d="M23,11H21V9H19V11H17V13H19V15H21V13H23M8,11V13.4H12C11.8,14.4 10.8,16.4 8,16.4C5.6,16.4 3.7,14.4 3.7,12C3.7,9.6 5.6,7.6 8,7.6C9.4,7.6 10.3,8.2 10.8,8.7L12.7,6.9C11.5,5.7 9.9,5 8,5C4.1,5 1,8.1 1,12C1,15.9 4.1,19 8,19C12,19 14.7,16.2 14.7,12.2C14.7,11.7 14.7,11.4 14.6,11H8Z" id="google-plus"/><g id="help"> <path d="M0 0h24v24H0z" fill="none"/> <path d="M11 18h2v-2h-2v2zm1-16C6.48 2 2 6.48 2 12s4.48 10 10 10 10-4.48 10-10S17.52 2 12 2zm0 18c-4.41 0-8-3.59-8-8s3.59-8 8-8 8 3.59 8 8-3.59 8-8 8zm0-14c-2.21 0-4 1.79-4 4h2c0-1.1.9-2 2-2s2 .9 2 2c0 2-3 1.75-3 5h2c0-2.25 3-2.5 3-5 0-2.21-1.79-4-4-4z"/> </g><g id="hide"> <path d="M0 0h24v24H0zm0 0h24v24H0zm0 0h24v24H0zm0 0h24v24H0z" fill="none"/> <path d="M12 7c2.76 0 5 2.24 5 5 0 .65-.13 1.26-.36 1.83l2.92 2.92c1.51-1.26 2.7-2.89 3.43-4.75-1.73-4.39-6-7.5-11-7.5-1.4 0-2.74.25-3.98.7l2.16 2.16C10.74 7.13 11.35 7 12 7zM2 4.27l2.28 2.28.46.46C3.08 8.3 1.78 10.02 1 12c1.73 4.39 6 7.5 11 7.5 1.55 0 3.03-.3 4.38-.84l.42.42L19.73 22 21 20.73 3.27 3 2 4.27zM7.53 9.8l1.55 1.55c-.05.21-.08.43-.08.65 0 1.66 1.34 3 3 3 .22 0 .44-.03.65-.08l1.55 1.55c-.67.33-1.41.53-2.2.53-2.76 0-5-2.24-5-5 0-.79.2-1.53.53-2.2zm4.31-.78l3.15 3.15.02-.16c0-1.66-1.34-3-3-3l-.17.01z"/> </g><g id="history"> <path d="M0 0h24v24H0z" fill="none"/> <path d="M13 3c-4.97 0-9 4.03-9 9H1l3.89 3.89.07.14L9 12H6c0-3.87 3.13-7 7-7s7 3.13 7 7-3.13 7-7 7c-1.93 0-3.68-.79-4.94-2.06l-1.42 1.42C8.27 19.99 10.51 21 13 21c4.97 0 9-4.03 9-9s-4.03-9-9-9zm-1 5v5l4.28 2.54.72-1.21-3.5-2.08V8H12z"/> </g><g id="home"> <path d="M10 20v-6h4v6h5v-8h3L12 3 2 12h3v8z"/> <path d="M0 0h24v24H0z" fill="none"/> </g><path d="M8,19H11V23H13V19H16L12,15L8,19M16,5H13V1H11V5H8L12,9L16,5M4,11V13H20V11H4Z" id="horizontal"/><g id="if-branches"><defs><style>.cls-1{fill:#1d1d1b;}</style></defs><title>if-branches</title><path class="cls-1" d="M3.5,2.17l0.16,0L5.81,2.69a0.69,0.69,0,0,1,.51.83L5.58,5.18s-0.75.74-.34,1,1.22-.34,1.22-0.34l4-3.15a0.68,0.68,0,0,1,.36-0.1l0.16,0a0.69,0.69,0,0,1,.43.31l1.16,1.88a0.68,0.68,0,0,1,.08.52,0.43,0.43,0,0,1-.3.29l-0.56.22S9.82,6.42,10,6.9s1.66-.28,1.66-0.28L15.24,7a0.69,0.69,0,0,1,.58.78L15.49,9.91a0.69,0.69,0,0,1-.68.59h-0.1l-8-1.6L4.36,10.46,4,13.3a0.69,0.69,0,0,1-.67.53l-0.16,0L1,13.31a0.69,0.69,0,0,1-.51-0.83L2.83,2.7A0.69,0.69,0,0,1,3.5,2.17"/></g><g id="images"> <path d="M0 0h24v24H0z" fill="none"/> <path d="M22 16V4c0-1.1-.9-2-2-2H8c-1.1 0-2 .9-2 2v12c0 1.1.9 2 2 2h12c1.1 0 2-.9 2-2zm-11-4l2.03 2.71L16 11l4 5H8l3-4zM2 6v14c0 1.1.9 2 2 2h14v-2H4V6H2z"/> </g><g id="info"> <path d="M0 0h24v24H0z" fill="none"/> <path d="M12 2C6.48 2 2 6.48 2 12s4.48 10 10 10 10-4.48 10-10S17.52 2 12 2zm1 15h-2v-6h2v6zm0-8h-2V7h2v2z"/> </g><g id="like"> <path d="M0 0h24v24H0z" fill="none"/> <path d="M10 8H8v4H4v2h4v4h2v-4h4v-2h-4zm4.5-1.92V7.9l2.5-.5V18h2V5z"/> </g><g id="link"> <path d="M0 0h24v24H0z" fill="none"/> <path d="M3.9 12c0-1.71 1.39-3.1 3.1-3.1h4V7H7c-2.76 0-5 2.24-5 5s2.24 5 5 5h4v-1.9H7c-1.71 0-3.1-1.39-3.1-3.1zM8 13h8v-2H8v2zm9-6h-4v1.9h4c1.71 0 3.1 1.39 3.1 3.1s-1.39 3.1-3.1 3.1h-4V17h4c2.76 0 5-2.24 5-5s-2.24-5-5-5z"/> </g><g id="list"> <path d="M4 14h4v-4H4v4zm0 5h4v-4H4v4zM4 9h4V5H4v4zm5 5h12v-4H9v4zm0 5h12v-4H9v4zM9 5v4h12V5H9z"/> <path d="M0 0h24v24H0z" fill="none"/> </g><g id="login"> <path d="M12 2C6.48 2 2 6.48 2 12s4.48 10 10 10 10-4.48 10-10S17.52 2 12 2zm0 3c1.66 0 3 1.34 3 3s-1.34 3-3 3-3-1.34-3-3 1.34-3 3-3zm0 14.2c-2.5 0-4.71-1.28-6-3.22.03-1.99 4-3.08 6-3.08 1.99 0 5.97 1.09 6 3.08-1.29 1.94-3.5 3.22-6 3.22z"/> <path d="M0 0h24v24H0z" fill="none"/> </g><path d="M14.08,15.59L16.67,13H7V11H16.67L14.08,8.41L15.5,7L20.5,12L15.5,17L14.08,15.59M19,3A2,2 0 0,1 21,5V9.67L19,7.67V5H5V19H19V16.33L21,14.33V19A2,2 0 0,1 19,21H5C3.89,21 3,20.1 3,19V5C3,3.89 3.89,3 5,3H19Z" id="logout"/><g id="map"> <path d="M20.5 3l-.16.03L15 5.1 9 3 3.36 4.9c-.21.07-.36.25-.36.48V20.5c0 .28.22.5.5.5l.16-.03L9 18.9l6 2.1 5.64-1.9c.21-.07.36-.25.36-.48V3.5c0-.28-.22-.5-.5-.5zM15 19l-6-2.11V5l6 2.11V19z"/> <path d="M0 0h24v24H0z" fill="none"/> </g><g id="menu"> <path d="M0 0h24v24H0z" fill="none"/> <path d="M3 18h18v-2H3v2zm0-5h18v-2H3v2zm0-7v2h18V6H3z"/> </g><path d="M19,11H15V15H13V11H9V9H13V5H15V9H19M20,2H8A2,2 0 0,0 6,4V16A2,2 0 0,0 8,18H20A2,2 0 0,0 22,16V4A2,2 0 0,0 20,2M4,6H2V20A2,2 0 0,0 4,22H18V20H4V6Z" id="more"/><g id="node-added"> <path d="M0 0h24v24H0z" fill="none"/> <path d="M14 2H6c-1.1 0-1.99.9-1.99 2L4 20c0 1.1.89 2 1.99 2H18c1.1 0 2-.9 2-2V8l-6-6zm2 14h-3v3h-2v-3H8v-2h3v-3h2v3h3v2zm-3-7V3.5L18.5 9H13z"/> </g><path d="M11,17H4A2,2 0 0,1 2,15V3A2,2 0 0,1 4,1H16V3H4V15H11V13L15,16L11,19V17M19,21V7H8V13H6V7A2,2 0 0,1 8,5H19A2,2 0 0,1 21,7V21A2,2 0 0,1 19,23H8A2,2 0 0,1 6,21V19H8V21H19Z" id="node-visited"/><g id="open"> <path d="M0 0h24v24H0z" fill="none"/> <path d="M19 19H5V5h7V3H5c-1.11 0-2 .9-2 2v14c0 1.1.89 2 2 2h14c1.1 0 2-.9 2-2v-7h-2v7zM14 3v2h3.59l-9.83 9.83 1.41 1.41L19 6.41V10h2V3h-7z"/> </g><g id="paste"> <path d="M19 2h-4.18C14.4.84 13.3 0 12 0c-1.3 0-2.4.84-2.82 2H5c-1.1 0-2 .9-2 2v16c0 1.1.9 2 2 2h14c1.1 0 2-.9 2-2V4c0-1.1-.9-2-2-2zm-7 0c.55 0 1 .45 1 1s-.45 1-1 1-1-.45-1-1 .45-1 1-1zm7 18H5V4h2v3h10V4h2v16z"/> <path d="M0 0h24v24H0z" fill="none"/> </g><g id="people-outline"> <path d="M0 0h24v24H0z" fill="none"/> <path d="M16.5 13c-1.2 0-3.07.34-4.5 1-1.43-.67-3.3-1-4.5-1C5.33 13 1 14.08 1 16.25V19h22v-2.75c0-2.17-4.33-3.25-6.5-3.25zm-4 4.5h-10v-1.25c0-.54 2.56-1.75 5-1.75s5 1.21 5 1.75v1.25zm9 0H14v-1.25c0-.46-.2-.86-.52-1.22.88-.3 1.96-.53 3.02-.53 2.44 0 5 1.21 5 1.75v1.25zM7.5 12c1.93 0 3.5-1.57 3.5-3.5S9.43 5 7.5 5 4 6.57 4 8.5 5.57 12 7.5 12zm0-5.5c1.1 0 2 .9 2 2s-.9 2-2 2-2-.9-2-2 .9-2 2-2zm9 5.5c1.93 0 3.5-1.57 3.5-3.5S18.43 5 16.5 5 13 6.57 13 8.5s1.57 3.5 3.5 3.5zm0-5.5c1.1 0 2 .9 2 2s-.9 2-2 2-2-.9-2-2 .9-2 2-2z"/> </g><g id="people"> <path d="M0 0h24v24H0z" fill="none"/> <path d="M16 11c1.66 0 2.99-1.34 2.99-3S17.66 5 16 5c-1.66 0-3 1.34-3 3s1.34 3 3 3zm-8 0c1.66 0 2.99-1.34 2.99-3S9.66 5 8 5C6.34 5 5 6.34 5 8s1.34 3 3 3zm0 2c-2.33 0-7 1.17-7 3.5V19h14v-2.5c0-2.33-4.67-3.5-7-3.5zm8 0c-.29 0-.62.02-.97.05 1.16.84 1.97 1.97 1.97 3.45V19h6v-2.5c0-2.33-4.67-3.5-7-3.5z"/> </g><path d="M16,12V4H17V2H7V4H8V12L6,14V16H11.2V22H12.8V16H18V14L16,12Z" id="pin"/><g id="play-arrow"> <path d="M8 5v14l11-7z"/> <path d="M0 0h24v24H0z" fill="none"/> </g><path d="M22,12A10,10 0 0,1 12,22A10,10 0 0,1 2,12V4.5A2.5,2.5 0 0,1 4.5,2H19.5A2.5,2.5 0 0,1 22,4.5V12M15.88,8.25L12,12.13L8.12,8.24C7.53,7.65 6.58,7.65 6,8.24C5.41,8.82 5.41,9.77 6,10.36L10.93,15.32C11.5,15.9 12.47,15.9 13.06,15.32L18,10.37C18.59,9.78 18.59,8.83 18,8.25C17.42,7.66 16.47,7.66 15.88,8.25Z" id="pocket"/><g id="public"> <path d="M0 0h24v24H0z" fill="none"/> <path d="M12 2C6.48 2 2 6.48 2 12s4.48 10 10 10 10-4.48 10-10S17.52 2 12 2zm-1 17.93c-3.95-.49-7-3.85-7-7.93 0-.62.08-1.21.21-1.79L9 15v1c0 1.1.9 2 2 2v1.93zm6.9-2.54c-.26-.81-1-1.39-1.9-1.39h-1v-3c0-.55-.45-1-1-1H8v-2h2c.55 0 1-.45 1-1V7h2c1.1 0 2-.9 2-2v-.41c2.93 1.19 5 4.06 5 7.41 0 2.08-.8 3.97-2.1 5.39z"/> </g><path d="M19,7H9V5H19M15,15H9V13H15M19,11H9V9H19M20,2H8A2,2 0 0,0 6,4V16A2,2 0 0,0 8,18H20A2,2 0 0,0 22,16V4A2,2 0 0,0 20,2M4,6H2V20A2,2 0 0,0 4,22H18V20H4V6Z" id="reader"/><g id="redo"> <path d="M0 0h24v24H0z" fill="none"/> <path d="M18.4 10.6C16.55 8.99 14.15 8 11.5 8c-4.65 0-8.58 3.03-9.96 7.22L3.9 16c1.05-3.19 4.05-5.5 7.6-5.5 1.95 0 3.73.72 5.12 1.88L13 16h9V7l-3.6 3.6z"/> </g><g id="refresh"> <path d="M17.65 6.35C16.2 4.9 14.21 4 12 4c-4.42 0-7.99 3.58-7.99 8s3.57 8 7.99 8c3.73 0 6.84-2.55 7.73-6h-2.08c-.82 2.33-3.04 4-5.65 4-3.31 0-6-2.69-6-6s2.69-6 6-6c1.66 0 3.14.69 4.22 1.78L13 11h7V4l-2.35 2.35z"/> <path d="M0 0h24v24H0z" fill="none"/> </g><g id="remove-all"> <path d="M12 2C6.47 2 2 6.47 2 12s4.47 10 10 10 10-4.47 10-10S17.53 2 12 2zm5 13.59L15.59 17 12 13.41 8.41 17 7 15.59 10.59 12 7 8.41 8.41 7 12 10.59 15.59 7 17 8.41 13.41 12 17 15.59z"/> <path d="M0 0h24v24H0z" fill="none"/> </g><g id="remove"> <path d="M19 6.41L17.59 5 12 10.59 6.41 5 5 6.41 10.59 12 5 17.59 6.41 19 12 13.41 17.59 19 19 17.59 13.41 12z"/> <path d="M0 0h24v24H0z" fill="none"/> </g><g id="report"> <path d="M15.73 3H8.27L3 8.27v7.46L8.27 21h7.46L21 15.73V8.27L15.73 3zM12 17.3c-.72 0-1.3-.58-1.3-1.3 0-.72.58-1.3 1.3-1.3.72 0 1.3.58 1.3 1.3 0 .72-.58 1.3-1.3 1.3zm1-4.3h-2V7h2v6z"/> <path d="M0 0h24v24H0z" fill="none"/> </g><g id="rss"> <path d="M0 0h24v24H0z" fill="none"/> <circle cx="6.18" cy="17.82" r="2.18"/> <path d="M4 4.44v2.83c7.03 0 12.73 5.7 12.73 12.73h2.83c0-8.59-6.97-15.56-15.56-15.56zm0 5.66v2.83c3.9 0 7.07 3.17 7.07 7.07h2.83c0-5.47-4.43-9.9-9.9-9.9z"/> </g><g id="search"> <path d="M15.5 14h-.79l-.28-.27C15.41 12.59 16 11.11 16 9.5 16 5.91 13.09 3 9.5 3S3 5.91 3 9.5 5.91 16 9.5 16c1.61 0 3.09-.59 4.23-1.57l.27.28v.79l5 4.99L20.49 19l-4.99-5zm-6 0C7.01 14 5 11.99 5 9.5S7.01 5 9.5 5 14 7.01 14 9.5 11.99 14 9.5 14z"/> <path d="M0 0h24v24H0z" fill="none"/> </g><g id="settings"> <path d="M0 0h24v24H0z" fill="none"/> <path d="M19.43 12.98c.04-.32.07-.64.07-.98s-.03-.66-.07-.98l2.11-1.65c.19-.15.24-.42.12-.64l-2-3.46c-.12-.22-.39-.3-.61-.22l-2.49 1c-.52-.4-1.08-.73-1.69-.98l-.38-2.65C14.46 2.18 14.25 2 14 2h-4c-.25 0-.46.18-.49.42l-.38 2.65c-.61.25-1.17.59-1.69.98l-2.49-1c-.23-.09-.49 0-.61.22l-2 3.46c-.13.22-.07.49.12.64l2.11 1.65c-.04.32-.07.65-.07.98s.03.66.07.98l-2.11 1.65c-.19.15-.24.42-.12.64l2 3.46c.12.22.39.3.61.22l2.49-1c.52.4 1.08.73 1.69.98l.38 2.65c.03.24.24.42.49.42h4c.25 0 .46-.18.49-.42l.38-2.65c.61-.25 1.17-.59 1.69-.98l2.49 1c.23.09.49 0 .61-.22l2-3.46c.12-.22.07-.49-.12-.64l-2.11-1.65zM12 15.5c-1.93 0-3.5-1.57-3.5-3.5s1.57-3.5 3.5-3.5 3.5 1.57 3.5 3.5-1.57 3.5-3.5 3.5z"/> </g><g id="share"> <path d="M0 0h24v24H0z" fill="none"/> <path d="M18 16.08c-.76 0-1.44.3-1.96.77L8.91 12.7c.05-.23.09-.46.09-.7s-.04-.47-.09-.7l7.05-4.11c.54.5 1.25.81 2.04.81 1.66 0 3-1.34 3-3s-1.34-3-3-3-3 1.34-3 3c0 .24.04.47.09.7L8.04 9.81C7.5 9.31 6.79 9 6 9c-1.66 0-3 1.34-3 3s1.34 3 3 3c.79 0 1.5-.31 2.04-.81l7.12 4.16c-.05.21-.08.43-.08.65 0 1.61 1.31 2.92 2.92 2.92 1.61 0 2.92-1.31 2.92-2.92s-1.31-2.92-2.92-2.92z"/> </g><g id="shared"> <path d="M20 6h-8l-2-2H4c-1.1 0-1.99.9-1.99 2L2 18c0 1.1.9 2 2 2h16c1.1 0 2-.9 2-2V8c0-1.1-.9-2-2-2zm-5 3c1.1 0 2 .9 2 2s-.9 2-2 2-2-.9-2-2 .9-2 2-2zm4 8h-8v-1c0-1.33 2.67-2 4-2s4 .67 4 2v1z"/> <path d="M0 0h24v24H0z" fill="none"/> </g><g id="show"> <path d="M0 0h24v24H0z" fill="none"/> <path d="M12 4.5C7 4.5 2.73 7.61 1 12c1.73 4.39 6 7.5 11 7.5s9.27-3.11 11-7.5c-1.73-4.39-6-7.5-11-7.5zM12 17c-2.76 0-5-2.24-5-5s2.24-5 5-5 5 2.24 5 5-2.24 5-5 5zm0-8c-1.66 0-3 1.34-3 3s1.34 3 3 3 3-1.34 3-3-1.34-3-3-3z"/> </g><path d="M10,11V13H18V11H10M10,5V7H14V5H10M10,17V19H22V17H10M6,7H8.5L5,3.5L1.5,7H4V20H6V7Z" id="sort-ascending"/><path d="M10,13V11H18V13H10M10,19V17H14V19H10M10,7V5H22V7H10M6,17H8.5L5,20.5L1.5,17H4V4H6V17Z" id="sort-descending"/><g id="sort"> <path d="M3 18h6v-2H3v2zM3 6v2h18V6H3zm0 7h12v-2H3v2z"/> <path d="M0 0h24v24H0z" fill="none"/> </g><g id="star-border"> <path d="M22 9.24l-7.19-.62L12 2 9.19 8.63 2 9.24l5.46 4.73L5.82 21 12 17.27 18.18 21l-1.63-7.03L22 9.24zM12 15.4l-3.76 2.27 1-4.28-3.32-2.88 4.38-.38L12 6.1l1.71 4.04 4.38.38-3.32 2.88 1 4.28L12 15.4z"/> <path d="M0 0h24v24H0z" fill="none"/> </g><g id="star"> <path d="M0 0h24v24H0z" fill="none"/> <path d="M12 17.27L18.18 21l-1.64-7.03L22 9.24l-7.19-.61L12 2 9.19 8.63 2 9.24l5.46 4.73L5.82 21z"/> <path d="M0 0h24v24H0z" fill="none"/> </g><g id="sync"> <path d="M12 4V1L8 5l4 4V6c3.31 0 6 2.69 6 6 0 1.01-.25 1.97-.7 2.8l1.46 1.46C19.54 15.03 20 13.57 20 12c0-4.42-3.58-8-8-8zm0 14c-3.31 0-6-2.69-6-6 0-1.01.25-1.97.7-2.8L5.24 7.74C4.46 8.97 4 10.43 4 12c0 4.42 3.58 8 8 8v3l4-4-4-4v3z"/> <path d="M0 0h24v24H0z" fill="none"/> </g><g id="trend"> <path d="M16 6l2.29 2.29-4.88 4.88-4-4L2 16.59 3.41 18l6-6 4 4 6.3-6.29L22 12V6z"/> <path d="M0 0h24v24H0z" fill="none"/> </g><path d="M22.46,6C21.69,6.35 20.86,6.58 20,6.69C20.88,6.16 21.56,5.32 21.88,4.31C21.05,4.81 20.13,5.16 19.16,5.36C18.37,4.5 17.26,4 16,4C13.65,4 11.73,5.92 11.73,8.29C11.73,8.63 11.77,8.96 11.84,9.27C8.28,9.09 5.11,7.38 3,4.79C2.63,5.42 2.42,6.16 2.42,6.94C2.42,8.43 3.17,9.75 4.33,10.5C3.62,10.5 2.96,10.3 2.38,10C2.38,10 2.38,10 2.38,10.03C2.38,12.11 3.86,13.85 5.82,14.24C5.46,14.34 5.08,14.39 4.69,14.39C4.42,14.39 4.15,14.36 3.89,14.31C4.43,16 6,17.26 7.89,17.29C6.43,18.45 4.58,19.13 2.56,19.13C2.22,19.13 1.88,19.11 1.54,19.07C3.44,20.29 5.7,21 8.12,21C16,21 20.33,14.46 20.33,8.79C20.33,8.6 20.33,8.42 20.32,8.23C21.16,7.63 21.88,6.87 22.46,6Z" id="twitter"/><g id="undo"> <path d="M0 0h24v24H0z" fill="none"/> <path d="M12.5 8c-2.65 0-5.05.99-6.9 2.6L2 7v9h9l-3.62-3.62c1.39-1.16 3.16-1.88 5.12-1.88 3.54 0 6.55 2.31 7.6 5.5l2.37-.78C21.08 11.03 17.15 8 12.5 8z"/> </g><path d="M19,16V13H23V11H19V8L15,12L19,16M5,8V11H1V13H5V16L9,12L5,8M11,20H13V4H11V20Z" id="vertical"/><path d="M10,16.5V7.5L16,12M20,4.4C19.4,4.2 15.7,4 12,4C8.3,4 4.6,4.19 4,4.38C2.44,4.9 2,8.4 2,12C2,15.59 2.44,19.1 4,19.61C4.6,19.81 8.3,20 12,20C15.7,20 19.4,19.81 20,19.61C21.56,19.1 22,15.59 22,12C22,8.4 21.56,4.91 20,4.4Z" id="youtube"/> <path d="M9,2A7,7 0 0,1 16,9C16,10.57 15.5,12 14.61,13.19L15.41,14H16L22,20L20,22L14,16V15.41L13.19,14.61C12,15.5 10.57,16 9,16A7,7 0 0,1 2,9A7,7 0 0,1 9,2M8,5V8H5V10H8V13H10V10H13V8H10V5H8Z" id="zoom-in"/>  <path d="M9,2A7,7 0 0,1 16,9C16,10.57 15.5,12 14.61,13.19L15.41,14H16L22,20L20,22L14,16V15.41L13.19,14.61C12,15.5 10.57,16 9,16A7,7 0 0,1 2,9A7,7 0 0,1 9,2M5,8V10H13V8H5Z" id="zoom-out"/> </defs></svg>