<?xml version="1.0" encoding="utf-8"?>
<!-- Generator: Adobe Illustrator 15.0.0, SVG Export Plug-In . SVG Version: 6.00 Build 0)  -->
<!DOCTYPE svg PUBLIC "-//W3C//DTD SVG 1.1//EN" "http://www.w3.org/Graphics/SVG/1.1/DTD/svg11.dtd">
<svg version="1.1" id="Layer_1" xmlns="http://www.w3.org/2000/svg" xmlns:xlink="http://www.w3.org/1999/xlink" x="0px" y="0px"
	 width="281.5px" height="49.3px" viewBox="0 0 281.5 49.3" style="enable-background:new 0 0 281.5 49.3;" xml:space="preserve">
<style type="text/css">
<![CDATA[
	.st0{fill:#FFFFFF;}
]]>
</style>
<g>
	<path class="st0" d="M61.2,27.3l2.7-25.5H69L66.8,23h8.7L75,27.3H61.2z"/>
	<path class="st0" d="M85.3,16.4L84.6,23h10.2l-0.4,4.4H79.1l2.7-25.5H97l-0.5,4.4H86.3L85.8,12h8l-0.5,4.4H85.3z"/>
	<path class="st0" d="M113.5,1.8l6.4,25.5h-5l-1.4-5.5H104l-2.5,5.5h-5l11.8-25.5H113.5z M110.2,8.2l-4.2,9.2h6.4L110.2,8.2
		L110.2,8.2z"/>
	<path class="st0" d="M130.4,10.8l-1.7,16.5h-5.1l2.7-25.5h4.8l9.3,16.5h0.1l1.7-16.5h5.1l-2.7,25.5h-4.8L130.4,10.8L130.4,10.8z"/>
	<path class="st0" d="M160.6,27.3V2.2h4.2v21.1h11.5v4H160.6z"/>
	<path class="st0" d="M180.7,4.4c-0.5-0.5-0.8-1.1-0.8-1.8c0-0.7,0.3-1.3,0.8-1.8s1.1-0.8,1.8-0.8s1.3,0.3,1.8,0.8
		c0.5,0.5,0.8,1.1,0.8,1.8c0,0.7-0.3,1.3-0.8,1.8c-0.5,0.5-1.1,0.8-1.8,0.8S181.2,4.9,180.7,4.4z M184.4,27.3h-4V8.2h4V27.3z"/>
	<path class="st0" d="M200.5,7.9c2.6,0,4.8,0.9,6.6,2.7c1.8,1.8,2.7,4.1,2.7,7.1s-0.9,5.4-2.7,7.2c-1.8,1.8-3.9,2.8-6.3,2.8
		s-4.6-1.1-6.5-3.2v2.9h-4V0.6h4v10.9C195.9,9.1,198,7.9,200.5,7.9z M194.2,17.8c0,1.8,0.6,3.3,1.7,4.5c1.1,1.2,2.4,1.7,4,1.7
		s3-0.6,4.1-1.7c1.2-1.2,1.8-2.6,1.8-4.5s-0.6-3.4-1.7-4.6c-1.2-1.2-2.5-1.8-4.1-1.8c-1.6,0-3,0.6-4.1,1.8
		C194.8,14.4,194.2,16,194.2,17.8z"/>
	<path class="st0" d="M224.5,12c-2,0-3.5,0.6-4.5,1.9c-1,1.3-1.5,3-1.5,5.2v8.2h-4V8.2h4V12c0.6-1.2,1.5-2.2,2.6-3
		c1.1-0.8,2.3-1.2,3.5-1.2l0,4.1C224.7,12,224.6,12,224.5,12z"/>
	<path class="st0" d="M244.1,27.3h-3.7v-2.6c-1.6,1.9-3.7,2.8-6.4,2.8c-2,0-3.6-0.6-4.9-1.7c-1.3-1.1-2-2.6-2-4.5
		c0-1.9,0.7-3.3,2.1-4.2c1.4-0.9,3.3-1.4,5.7-1.4h5.2V15c0-2.5-1.4-3.8-4.2-3.8c-1.8,0-3.6,0.6-5.5,1.9l-1.8-2.5
		c2.3-1.8,5-2.8,7.9-2.8c2.3,0,4.1,0.6,5.5,1.7c1.4,1.1,2.1,2.9,2.1,5.4V27.3z M240.1,20.2v-1.6h-4.5c-2.9,0-4.4,0.9-4.4,2.7
		c0,0.9,0.4,1.7,1.1,2.1c0.7,0.5,1.7,0.7,3,0.7s2.4-0.4,3.4-1.1C239.6,22.4,240.1,21.4,240.1,20.2z"/>
	<path class="st0" d="M259.8,12c-2,0-3.5,0.6-4.5,1.9c-1,1.3-1.5,3-1.5,5.2v8.2h-4V8.2h4V12c0.6-1.2,1.5-2.2,2.6-3
		c1.1-0.8,2.3-1.2,3.5-1.2l0,4.1C259.9,12,259.8,12,259.8,12z"/>
	<path class="st0" d="M266.4,35c-1.8,0-3.3-0.6-4.8-1.9l1.8-3.3c0.8,0.8,1.7,1.2,2.6,1.2c0.9,0,1.6-0.3,2.2-1s0.8-1.4,0.8-2.1
		c0-0.3-2.6-6.9-7.7-19.7h4.3l5.7,14.1l5.7-14.1h4.3l-9.3,22.8c-0.6,1.2-1.3,2.2-2.4,3C268.8,34.6,267.7,35,266.4,35z"/>
</g>
<g>
	<path class="st0" d="M70.1,39.5c-0.6-0.3-1.2-0.4-1.8-0.4c-0.8,0-1.6,0.2-2.3,0.6c-0.7,0.4-1.3,0.9-1.7,1.6
		c-0.4,0.7-0.6,1.5-0.6,2.3c0,0.8,0.2,1.6,0.6,2.3s1,1.2,1.7,1.6c0.7,0.4,1.5,0.6,2.3,0.6c0.6,0,1.2-0.1,1.8-0.4
		c0.6-0.2,1.1-0.6,1.5-1l0.8,0.8c-0.6,0.5-1.2,1-1.9,1.3c-0.7,0.3-1.5,0.5-2.2,0.5c-1.1,0-2-0.3-2.9-0.8c-0.9-0.5-1.6-1.2-2.1-2.1
		c-0.5-0.9-0.8-1.8-0.8-2.9c0-1,0.3-2,0.8-2.9c0.5-0.9,1.2-1.6,2.1-2.1s1.9-0.8,2.9-0.8c0.8,0,1.5,0.1,2.2,0.4
		c0.7,0.3,1.3,0.7,1.9,1.2l-0.8,0.9C71.1,40.1,70.6,39.7,70.1,39.5z"/>
	<path class="st0" d="M82.2,38.7c0.9,0.5,1.6,1.2,2.1,2.1c0.5,0.9,0.8,1.8,0.8,2.9c0,1-0.3,2-0.8,2.9c-0.5,0.9-1.2,1.6-2.1,2.1
		c-0.9,0.5-1.9,0.8-2.9,0.8c-1.1,0-2.1-0.3-3-0.8c-0.9-0.5-1.6-1.2-2.1-2.1c-0.5-0.9-0.8-1.8-0.8-2.9c0-1,0.3-2,0.8-2.9
		c0.5-0.9,1.2-1.6,2.1-2.1c0.9-0.5,1.9-0.8,3-0.8C80.3,37.9,81.3,38.2,82.2,38.7z M76.9,39.7c-0.7,0.4-1.3,0.9-1.7,1.6
		s-0.6,1.4-0.6,2.3s0.2,1.6,0.6,2.3s1,1.3,1.7,1.7c0.7,0.4,1.5,0.6,2.3,0.6c0.8,0,1.6-0.2,2.3-0.6c0.7-0.4,1.2-1,1.7-1.7
		s0.6-1.5,0.6-2.3s-0.2-1.6-0.6-2.3s-1-1.2-1.7-1.6c-0.7-0.4-1.5-0.6-2.3-0.6C78.4,39.1,77.6,39.3,76.9,39.7z"/>
	<path class="st0" d="M95.5,38h1.3v11.2h-1.3l-6.7-9.1v9.1h-1.3V38h1.3l6.7,9.1V38z"/>
	<path class="st0" d="M108.2,38h1.3v11.2h-1.3l-6.7-9.1v9.1h-1.3V38h1.3l6.7,9.1V38z"/>
	<path class="st0" d="M112.8,38h7.6v1.2h-6.3V43h5.6v1.2h-5.6v3.9h6.5v1.2h-7.8V38z"/>
	<path class="st0" d="M129.8,39.5c-0.6-0.3-1.2-0.4-1.8-0.4c-0.8,0-1.6,0.2-2.3,0.6c-0.7,0.4-1.3,0.9-1.7,1.6
		c-0.4,0.7-0.6,1.5-0.6,2.3c0,0.8,0.2,1.6,0.6,2.3s1,1.2,1.7,1.6c0.7,0.4,1.5,0.6,2.3,0.6c0.6,0,1.2-0.1,1.8-0.4
		c0.6-0.2,1.1-0.6,1.5-1l0.8,0.8c-0.6,0.5-1.2,1-1.9,1.3c-0.7,0.3-1.5,0.5-2.2,0.5c-1.1,0-2-0.3-2.9-0.8c-0.9-0.5-1.6-1.2-2.1-2.1
		c-0.5-0.9-0.8-1.8-0.8-2.9c0-1,0.3-2,0.8-2.9c0.5-0.9,1.2-1.6,2.1-2.1s1.9-0.8,2.9-0.8c0.8,0,1.5,0.1,2.2,0.4
		c0.7,0.3,1.3,0.7,1.9,1.2l-0.8,0.9C130.9,40.1,130.4,39.7,129.8,39.5z"/>
	<path class="st0" d="M132.9,38h8.6v1.2h-3.7v10h-1.3v-10h-3.6V38z"/>
	<path class="st0" d="M143.4,38h1.3v11.2h-1.3V38z"/>
	<path class="st0" d="M156.1,38h1.3v11.2h-1.3l-6.7-9.1v9.1h-1.3V38h1.3l6.7,9.1V38z"/>
	<path class="st0" d="M168.6,43.8h1.1v4.1c-0.6,0.5-1.2,0.8-1.9,1.1s-1.5,0.4-2.2,0.4c-1.1,0-2-0.3-2.9-0.8
		c-0.9-0.5-1.6-1.2-2.1-2.1c-0.5-0.9-0.8-1.8-0.8-2.9c0-1,0.3-2,0.8-2.9c0.5-0.9,1.2-1.6,2.1-2.1c0.9-0.5,1.9-0.8,3-0.8
		c0.8,0,1.5,0.1,2.2,0.4c0.7,0.3,1.4,0.7,1.9,1.1l-0.7,0.9c-0.5-0.4-1-0.7-1.6-1c-0.6-0.2-1.2-0.3-1.8-0.3c-0.8,0-1.6,0.2-2.3,0.6
		c-0.7,0.4-1.3,1-1.7,1.6c-0.4,0.7-0.6,1.4-0.6,2.3c0,0.8,0.2,1.6,0.6,2.3s1,1.2,1.7,1.6c0.7,0.4,1.5,0.6,2.3,0.6
		c0.5,0,1-0.1,1.5-0.2c0.5-0.2,1-0.4,1.4-0.7V43.8z"/>
	<path class="st0" d="M184.2,39.5c-0.6-0.3-1.2-0.4-1.8-0.4c-0.8,0-1.6,0.2-2.3,0.6c-0.7,0.4-1.3,0.9-1.7,1.6
		c-0.4,0.7-0.6,1.5-0.6,2.3c0,0.8,0.2,1.6,0.6,2.3s1,1.2,1.7,1.6c0.7,0.4,1.5,0.6,2.3,0.6c0.6,0,1.2-0.1,1.8-0.4
		c0.6-0.2,1.1-0.6,1.5-1l0.8,0.8c-0.6,0.5-1.2,1-1.9,1.3c-0.7,0.3-1.5,0.5-2.2,0.5c-1.1,0-2-0.3-2.9-0.8c-0.9-0.5-1.6-1.2-2.1-2.1
		c-0.5-0.9-0.8-1.8-0.8-2.9c0-1,0.3-2,0.8-2.9c0.5-0.9,1.2-1.6,2.1-2.1s1.9-0.8,2.9-0.8c0.8,0,1.5,0.1,2.2,0.4
		c0.7,0.3,1.3,0.7,1.9,1.2l-0.8,0.9C185.3,40.1,184.8,39.7,184.2,39.5z"/>
	<path class="st0" d="M196.3,38.7c0.9,0.5,1.6,1.2,2.1,2.1c0.5,0.9,0.8,1.8,0.8,2.9c0,1-0.3,2-0.8,2.9c-0.5,0.9-1.2,1.6-2.1,2.1
		c-0.9,0.5-1.9,0.8-2.9,0.8c-1.1,0-2.1-0.3-3-0.8c-0.9-0.5-1.6-1.2-2.1-2.1c-0.5-0.9-0.8-1.8-0.8-2.9c0-1,0.3-2,0.8-2.9
		c0.5-0.9,1.2-1.6,2.1-2.1c0.9-0.5,1.9-0.8,3-0.8C194.4,37.9,195.4,38.2,196.3,38.7z M191.1,39.7c-0.7,0.4-1.3,0.9-1.7,1.6
		s-0.6,1.4-0.6,2.3s0.2,1.6,0.6,2.3s1,1.3,1.7,1.7c0.7,0.4,1.5,0.6,2.3,0.6s1.6-0.2,2.3-0.6c0.7-0.4,1.2-1,1.7-1.7
		c0.4-0.7,0.6-1.5,0.6-2.3s-0.2-1.6-0.6-2.3c-0.4-0.7-1-1.2-1.7-1.6s-1.5-0.6-2.3-0.6S191.8,39.3,191.1,39.7z"/>
	<path class="st0" d="M209.6,38h1.3v11.2h-1.3l-6.7-9.1v9.1h-1.3V38h1.3l6.7,9.1V38z"/>
	<path class="st0" d="M212.8,38h8.6v1.2h-3.7v10h-1.3v-10h-3.6V38z"/>
	<path class="st0" d="M223.2,38h7.6v1.2h-6.3V43h5.6v1.2h-5.6v3.9h6.5v1.2h-7.8V38z"/>
	<path class="st0" d="M241.7,38h1.3v11.2h-1.3l-6.7-9.1v9.1h-1.3V38h1.3l6.7,9.1V38z"/>
	<path class="st0" d="M244.8,38h8.6v1.2h-3.7v10h-1.3v-10h-3.6V38z"/>
</g>
<g>
	<polygon class="st0" points="23.8,45.8 23.8,45.8 23.7,45.8 23.7,45.8 0,32.2 0,35.6 3,37.3 23.7,49.2 23.8,49.2 23.8,49.2 
		23.8,49.2 44.5,37.3 47.5,35.6 47.5,32.2 23.8,45.8 	"/>
	<polygon class="st0" points="3.2,29 23.7,40.8 23.8,40.8 23.8,40.8 23.8,40.8 44.3,29 47.5,27.2 47.5,23.7 23.8,37.4 23.8,37.4 
		23.8,37.4 23.7,37.4 23.7,37.4 0,23.8 0,27.2 	"/>
	<polygon class="st0" points="47.5,15.3 23.8,1.7 23.8,1.7 23.8,1.7 23.8,1.7 23.7,1.7 0,15.3 0,15.3 0,18.7 3.6,20.8 23.7,32.4 
		23.8,32.4 23.8,32.4 23.8,32.4 43.9,20.8 47.5,18.7 47.5,15.4 47.5,15.4 47.5,15.3 	"/>
</g>
</svg>
